<svg width="131" height="194" viewBox="0 0 131 194" fill="none" xmlns="http://www.w3.org/2000/svg">
<path d="M64.787 60.509C71.7629 60.4496 78.6881 61.6981 85.204 64.19C80.412 40.134 73.021 25.421 64.747 25.432H64.738C56.466 25.448 49.117 40.176 44.386 64.238C50.8934 61.7318 57.8128 60.4669 64.786 60.509H64.787Z" fill="url(#paint0_linear_1_3)"/>
<path d="M65.272 174.212L54.744 174.226C57.4 190.707 61.155 193.79 65.306 193.784C69.457 193.778 73.186 190.684 75.806 174.199L65.272 174.212Z" fill="url(#paint1_linear_1_3)"/>
<path d="M90.87 127.341C90.439 115.028 89.587 102.088 88.19 88.59C87.474 81.672 86.6557 74.9386 85.735 68.3899C72.2612 63.185 57.3287 63.2025 43.867 68.4389C42.969 75.0503 42.169 81.8469 41.467 88.8289C40.107 102.429 39.287 115.471 38.883 127.887C27.253 136.487 19.223 152.799 19.25 174.198L38.577 174.173C42.113 174.173 44.218 173.273 44.218 169.666L44.206 169.598L64.928 169.572L86.328 169.545C86.328 173.364 88.35 174.111 91.901 174.106L111.301 174.082C111.271 152.274 102.883 135.682 90.87 127.341ZM64.804 74.6819C66.3934 74.6798 67.9478 75.149 69.2705 76.0302C70.5933 76.9114 71.625 78.1652 72.2352 79.6328C72.8454 81.1004 73.0067 82.716 72.6987 84.2753C72.3907 85.8345 71.6272 87.2675 70.5047 88.3928C69.3823 89.5182 67.9514 90.2854 66.3929 90.5975C64.8344 90.9096 63.2184 90.7525 61.7492 90.1461C60.28 89.5398 59.0237 88.5113 58.139 87.1909C57.2543 85.8705 56.781 84.3174 56.779 82.728C56.7766 80.5969 57.6207 78.5522 59.1256 77.0434C60.6305 75.5345 62.673 74.6851 64.804 74.6819ZM64.838 100.861C66.4272 100.859 67.9813 101.328 69.3037 102.21C70.6262 103.091 71.6576 104.344 72.2676 105.812C72.8775 107.279 73.0387 108.895 72.7306 110.454C72.4225 112.013 71.659 113.445 70.5367 114.57C69.4144 115.696 67.9836 116.463 66.4254 116.775C64.8671 117.087 63.2513 116.929 61.7824 116.323C60.3134 115.717 59.0572 114.689 58.1727 113.368C57.2882 112.048 56.815 110.495 56.813 108.906C56.8106 106.775 57.6547 104.73 59.1596 103.222C60.6646 101.713 62.7071 100.864 64.838 100.861ZM64.892 143.111C63.3028 143.113 61.7488 142.644 60.4263 141.762C59.1039 140.881 58.0724 139.628 57.4625 138.16C56.8525 136.693 56.6914 135.077 56.9995 133.518C57.3076 131.959 58.0711 130.527 59.1934 129.401C60.3157 128.276 61.7464 127.509 63.3047 127.197C64.8629 126.885 66.4787 127.042 67.9476 127.649C69.4166 128.255 70.6728 129.283 71.5573 130.604C72.4419 131.924 72.9151 133.477 72.917 135.066C72.9183 136.121 72.7118 137.166 72.3092 138.142C71.9065 139.117 71.3157 140.004 70.5704 140.751C69.8251 141.498 68.94 142.091 67.9655 142.496C66.991 142.901 65.9463 143.111 64.891 143.112L64.892 143.111Z" fill="url(#paint2_linear_1_3)"/>
<path d="M64.813 78.033C63.5824 78.0525 62.409 78.5554 61.5462 79.433C60.6834 80.3107 60.2006 81.4926 60.2022 82.7234C60.2038 83.9541 60.6896 85.1348 61.5546 86.0103C62.4196 86.8857 63.5944 87.3856 64.825 87.402C66.0674 87.4004 67.2583 86.9053 68.1357 86.0257C69.0131 85.146 69.5051 83.9539 69.5035 82.7115C69.5019 81.4691 69.0068 80.2781 68.1272 79.4008C67.2476 78.5234 66.0554 78.0314 64.813 78.033Z" fill="url(#paint3_linear_1_3)"/>
<path d="M64.847 104.212H64.838C63.6074 104.231 62.4339 104.734 61.5711 105.612C60.7084 106.49 60.2256 107.672 60.2272 108.902C60.2288 110.133 60.7145 111.314 61.5796 112.189C62.4446 113.065 63.6194 113.565 64.85 113.581C66.0925 113.58 67.2836 113.085 68.1613 112.205C69.039 111.326 69.5313 110.133 69.53 108.891C69.5286 107.648 69.0338 106.457 68.1542 105.58C67.2747 104.702 66.0825 104.21 64.84 104.211L64.847 104.212Z" fill="url(#paint4_linear_1_3)"/>
<path d="M64.88 130.392H64.875C63.6444 130.411 62.4709 130.914 61.6082 131.792C60.7454 132.67 60.2626 133.852 60.2642 135.082C60.2657 136.313 60.7516 137.494 61.6166 138.369C62.4816 139.245 63.6564 139.745 64.887 139.761C66.1294 139.759 67.3203 139.265 68.1978 138.385C69.0753 137.505 69.5674 136.313 69.566 135.071C69.5645 133.829 69.0696 132.638 68.19 131.76C67.3105 130.883 66.1184 130.391 64.876 130.392H64.88Z" fill="url(#paint5_linear_1_3)"/>
<path d="M90.173 63.636C86.213 43.761 78.586 20.061 64.732 20.061H64.595C53.525 20.19 45.04 34.87 39.373 63.695L39.361 63.757L37.777 72.771C37.136 76.848 36.566 81.08 36.077 85.387C35.9797 86.2437 35.8853 87.107 35.794 87.977C35.188 93.755 34.711 99.823 34.371 106.053C32.656 104.73 31.0264 103.3 29.492 101.771C22.2206 94.509 17.3429 85.1977 15.5128 75.0853C13.6827 64.9729 14.9876 54.5427 19.2527 45.1929C23.5177 35.843 30.539 28.0204 39.3753 22.7736C48.2116 17.5268 58.4407 15.1067 68.6914 15.8375C78.942 16.5683 88.7243 20.4152 96.7269 26.8625C104.73 33.3099 110.57 42.0494 113.465 51.9098C116.361 61.7701 116.173 72.28 112.927 82.0304C109.68 91.7809 103.531 100.306 95.303 106.463C94.947 100.073 94.444 93.842 93.803 87.904C93.709 87.0373 93.6126 86.174 93.514 85.314C93.014 81.014 92.438 76.781 91.786 72.714L90.173 63.636Z" fill="url(#paint6_linear_1_3)"/>
<path d="M65.051 0.999967C50.6612 1.03875 36.6888 5.83967 25.3142 14.6536C13.9395 23.4676 5.80228 35.7988 2.17214 49.7233C-1.45799 63.6478 -0.376855 78.3823 5.24688 91.6278C10.8706 104.873 20.7206 115.885 33.26 122.944C33.3933 120.231 33.5413 117.548 33.704 114.897C26.1198 109.996 19.7773 103.401 15.176 95.631C9.97598 86.8208 7.19823 76.7922 7.12451 66.5621C7.05079 56.3321 9.68372 46.2645 14.7563 37.3803C19.8288 28.4961 27.1605 21.1114 36.0079 15.9749C44.8553 10.8385 54.9037 8.13312 65.134 8.13312C75.3643 8.13312 85.4127 10.8385 94.2601 15.9749C103.107 21.1114 110.439 28.4961 115.512 37.3803C120.584 46.2645 123.217 56.3321 123.143 66.5621C123.07 76.7922 120.292 86.8208 115.092 95.631C110.37 103.605 103.816 110.338 95.972 115.274C96.1347 117.912 96.285 120.576 96.423 123.267C109.114 116.314 119.129 105.333 124.887 92.0573C130.645 78.7811 131.819 63.9656 128.222 49.9486C124.626 35.9316 116.464 23.5112 105.025 14.6475C93.5867 5.78372 79.5221 0.981271 65.051 0.997968V0.999967Z" fill="url(#paint7_linear_1_3)"/>
<defs>
<linearGradient id="paint0_linear_1_3" x1="64.795" y1="190.823" x2="64.795" y2="62.8022" gradientUnits="userSpaceOnUse">
<stop stop-color="#3671E9"/>
<stop offset="1" stop-color="#3671E9"/>
</linearGradient>
<linearGradient id="paint1_linear_1_3" x1="65.275" y1="190.846" x2="65.275" y2="62.8189" gradientUnits="userSpaceOnUse">
<stop stop-color="#3671E9"/>
<stop offset="1" stop-color="#3671E9"/>
</linearGradient>
<linearGradient id="paint2_linear_1_3" x1="65.2755" y1="190.872" x2="65.2755" y2="62.8534" gradientUnits="userSpaceOnUse">
<stop stop-color="#3671E9"/>
<stop offset="1" stop-color="#3671E9"/>
</linearGradient>
<linearGradient id="paint3_linear_1_3" x1="64.8529" y1="190.836" x2="64.8529" y2="62.8083" gradientUnits="userSpaceOnUse">
<stop stop-color="#3671E9"/>
<stop offset="1" stop-color="#3671E9"/>
</linearGradient>
<linearGradient id="paint4_linear_1_3" x1="64.8786" y1="190.837" x2="64.8786" y2="62.8143" gradientUnits="userSpaceOnUse">
<stop stop-color="#3671E9"/>
<stop offset="1" stop-color="#3671E9"/>
</linearGradient>
<linearGradient id="paint5_linear_1_3" x1="64.9151" y1="190.841" x2="64.9151" y2="62.8134" gradientUnits="userSpaceOnUse">
<stop stop-color="#3671E9"/>
<stop offset="1" stop-color="#3671E9"/>
</linearGradient>
<linearGradient id="paint6_linear_1_3" x1="65.1072" y1="190.773" x2="65.1072" y2="62.8107" gradientUnits="userSpaceOnUse">
<stop stop-color="#3671E9"/>
<stop offset="1" stop-color="#3671E9"/>
</linearGradient>
<linearGradient id="paint7_linear_1_3" x1="65.1654" y1="190.882" x2="65.1654" y2="62.8661" gradientUnits="userSpaceOnUse">
<stop stop-color="#3671E9"/>
<stop offset="1" stop-color="#3671E9"/>
</linearGradient>
</defs>
</svg>
