<svg xmlns="http://www.w3.org/2000/svg" viewBox="0 0 193.757 193.757" style="enable-background:new 0 0 193.757 193.757" xml:space="preserve"><path d="M159.604 193.757h-21.885a2 2 0 0 1-2-2v-8h-77.9v8a2 2 0 0 1-2 2H33.934a2 2 0 0 1-2-2v-8H21.031C13.294 183.757 7 177.463 7 169.726V14.03C7 6.294 13.294 0 21.031 0h151.694c7.737 0 14.031 6.294 14.031 14.03v155.695c0 7.737-6.294 14.031-14.031 14.031h-11.122v8a2 2 0 0 1-1.999 2.001zm-19.885-4h17.885v-6h-17.885v6zm-103.785 0h17.885v-6H35.934v6zm123.67-10h13.122c5.531 0 10.031-4.5 10.031-10.031V14.03c0-5.53-4.5-10.03-10.031-10.03H21.031C15.5 4 11 8.5 11 14.03v155.695c0 5.531 4.5 10.031 10.031 10.031h138.573zm-27.669-9.375H30.531c-5.531 0-10.031-4.5-10.031-10.031V65.156c0-5.531 4.5-10.031 10.031-10.031h132.694c5.531 0 10.031 4.5 10.031 10.031v95.194c0 5.531-4.5 10.031-10.031 10.031h-31.284l-.006.001zm29.314-4h1.977a6.038 6.038 0 0 0 6.031-6.031v-13.304l-6.579-6.579-13.649 13.648 11.989 11.989c.086.087.164.179.231.277zm-24.486 0h18.875l-9.438-9.438-9.437 9.438zm-8.468 0h2.812l12.266-12.266-13.648-13.648-13.649 13.648 11.989 11.989c.085.087.163.179.23.277zm-24.486 0h18.875l-9.438-9.438-9.437 9.438zm-8.469 0h2.857a2 2 0 0 1 .231-.276l11.989-11.989-13.649-13.648-13.648 13.647 11.988 11.989c.087.087.164.179.232.277zm-24.486 0h18.874l-9.438-9.437-9.436 9.437zm-8.423 0h2.813a2 2 0 0 1 .231-.276l11.988-11.989-13.648-13.648-13.649 13.648 12.265 12.265zm-24.532 0h18.875l-9.438-9.438-9.437 9.438zM24.5 146.827v13.523a6.038 6.038 0 0 0 6.031 6.031h1.757a2 2 0 0 1 .231-.276l11.989-11.989-13.649-13.648-6.359 6.359zm42.143-9.187 13.648 13.648 13.649-13.649-13.648-13.649-13.649 13.65zm32.955-.001 13.648 13.649 13.648-13.649-13.648-13.648-13.648 13.648zm-65.91 0 13.648 13.649 13.648-13.649-13.647-13.649-13.649 13.649zm98.864 0 13.648 13.649 13.648-13.649L146.2 123.99l-13.648 13.649zm32.954 0 3.751 3.752v-7.503l-3.751 3.751zM24.5 134.107v7.063l3.531-3.532-3.531-3.531zm25.665-12.945 13.648 13.648 13.649-13.649-13.648-13.648-13.649 13.649zm98.863 0 13.649 13.648 6.579-6.579V114.07a2.022 2.022 0 0 1-.186-.164l-6.394-6.394-13.648 13.65zM24.5 128.451l6.359 6.359 13.649-13.648-13.649-13.649-6.359 6.359v14.579zm91.574-7.289 13.649 13.648 13.648-13.648-13.649-13.649-13.648 13.649zm-32.954 0 13.648 13.648 13.649-13.648-13.649-13.649-13.648 13.649zm49.432-16.477 13.648 13.649 13.649-13.649-13.649-13.65-13.648 13.65zm-98.864 0 13.649 13.649 13.648-13.649-13.648-13.65-13.649 13.65zm65.91 0 13.648 13.648 13.648-13.648-13.648-13.649-13.648 13.649zm-32.955 0 13.648 13.648 13.649-13.648-13.648-13.65-13.649 13.65zm98.863 0 3.751 3.751v-7.502l-3.751 3.751zM24.5 101.153v7.063l3.531-3.531-3.531-3.532zm124.528-12.946 13.649 13.649 6.579-6.579v-14.14l-6.579-6.579-13.649 13.649zM24.5 95.497l6.359 6.359 13.649-13.649L30.86 74.559l-6.36 6.359v14.579zm91.574-7.29 13.648 13.649 13.649-13.649-13.649-13.648-13.648 13.648zm-65.909 0 13.649 13.648 13.648-13.648-13.648-13.649-13.649 13.649zm32.955 0 13.648 13.648 13.649-13.648-13.648-13.649L83.12 88.207zm16.477-16.478 13.649 13.649 13.648-13.648-12.542-12.543a1.813 1.813 0 0 1-.061-.063H112.2L99.597 71.729zm32.955 0 13.648 13.65 13.648-13.649-12.604-12.604h-2.089l-12.603 12.603zm-98.864.001 13.648 13.648 13.649-13.649-12.603-12.604h-2.089L33.688 71.73zm32.955-.001 13.649 13.648L93.94 71.729 81.336 59.125h-2.091l-.061.063-12.541 12.541zm98.863 0 3.751 3.752v-7.503l-3.751 3.751zM24.5 68.198v7.063l3.531-3.532-3.531-3.531zm.415-5.241 5.944 5.944 9.777-9.776H30.531a6.042 6.042 0 0 0-5.616 3.832zm95.031-3.832 9.777 9.776 9.776-9.776h-19.553zm32.955 0 9.776 9.776 6.101-6.101a6.044 6.044 0 0 0-5.553-3.676h-10.324zm-65.909 0 9.776 9.776 9.776-9.776H86.992zm-32.954 0 9.776 9.776 9.776-9.776H54.038zm112.304-11.549H149.73a2 2 0 0 1-2-2v-30.96a2 2 0 0 1 2-2h16.612a2 2 0 0 1 2 2v30.96a2 2 0 0 1-2 2zm-14.613-4h12.612v-26.96h-12.612v26.96zm-19.53 4c-4.146 0-7.52-3.373-7.52-7.52s3.373-7.52 7.52-7.52 7.52 3.373 7.52 7.52-3.373 7.52-7.52 7.52zm0-11.039c-1.94 0-3.52 1.579-3.52 3.52s1.579 3.52 3.52 3.52 3.52-1.579 3.52-3.52-1.579-3.52-3.52-3.52zm-22.864 3.477c-5.468 0-9.917-4.449-9.917-9.917s4.449-9.917 9.917-9.917 9.917 4.449 9.917 9.917-4.449 9.917-9.917 9.917zm0-15.834c-3.263 0-5.917 2.654-5.917 5.917s2.654 5.917 5.917 5.917 5.917-2.654 5.917-5.917-2.654-5.917-5.917-5.917zM83.868 40.014c-5.468 0-9.917-4.449-9.917-9.917s4.449-9.917 9.917-9.917 9.917 4.449 9.917 9.917-4.449 9.917-9.917 9.917zm0-15.834c-3.263 0-5.917 2.654-5.917 5.917s2.654 5.917 5.917 5.917 5.917-2.654 5.917-5.917-2.654-5.917-5.917-5.917zM58.401 40.014c-5.468 0-9.917-4.449-9.917-9.917s4.449-9.917 9.917-9.917 9.917 4.449 9.917 9.917-4.449 9.917-9.917 9.917zm0-15.834c-3.263 0-5.917 2.654-5.917 5.917s2.654 5.917 5.917 5.917 5.917-2.654 5.917-5.917-2.654-5.917-5.917-5.917zM32.935 37.616c-4.146 0-7.52-3.373-7.52-7.52s3.373-7.52 7.52-7.52 7.52 3.373 7.52 7.52-3.374 7.52-7.52 7.52zm0-11.039c-1.94 0-3.52 1.579-3.52 3.52s1.579 3.52 3.52 3.52 3.52-1.579 3.52-3.52-1.58-3.52-3.52-3.52zm99.264 1.078c-4.146 0-7.52-3.373-7.52-7.52s3.373-7.52 7.52-7.52 7.52 3.373 7.52 7.52-3.373 7.52-7.52 7.52zm0-11.039c-1.94 0-3.52 1.579-3.52 3.52s1.579 3.52 3.52 3.52 3.52-1.579 3.52-3.52-1.579-3.52-3.52-3.52z"/></svg>